<svg width="18" height="22" viewBox="0 0 18 22" fill="none" xmlns="http://www.w3.org/2000/svg">
<path d="M9 21.8295L2.636 15.4655C1.37734 14.2068 0.520187 12.6032 0.172928 10.8573C-0.17433 9.11151 0.00390685 7.30191 0.685099 5.65739C1.36629 4.01286 2.51984 2.60726 3.99988 1.61833C5.47992 0.6294 7.21998 0.101563 9 0.101562C10.78 0.101562 12.5201 0.6294 14.0001 1.61833C15.4802 2.60726 16.6337 4.01286 17.3149 5.65739C17.9961 7.30191 18.1743 9.11151 17.8271 10.8573C17.4798 12.6032 16.6227 14.2068 15.364 15.4655L9 21.8295ZM13.95 14.0515C14.9289 13.0725 15.5955 11.8252 15.8656 10.4674C16.1356 9.10951 15.9969 7.70208 15.4671 6.42304C14.9373 5.144 14.04 4.05079 12.8889 3.28165C11.7378 2.51251 10.3844 2.10199 9 2.10199C7.61557 2.10199 6.26222 2.51251 5.11109 3.28165C3.95996 4.05079 3.06275 5.144 2.53292 6.42304C2.00308 7.70208 1.86442 9.10951 2.13445 10.4674C2.40449 11.8252 3.07111 13.0725 4.05 14.0515L9 19.0015L13.95 14.0515ZM9 11.1015C8.46957 11.1015 7.96086 10.8908 7.58579 10.5157C7.21072 10.1406 7 9.63192 7 9.10148C7 8.57105 7.21072 8.06234 7.58579 7.68727C7.96086 7.3122 8.46957 7.10148 9 7.10148C9.53044 7.10148 10.0391 7.3122 10.4142 7.68727C10.7893 8.06234 11 8.57105 11 9.10148C11 9.63192 10.7893 10.1406 10.4142 10.5157C10.0391 10.8908 9.53044 11.1015 9 11.1015Z" fill="white"/>
</svg>
