<svg width="20" height="19" viewBox="0 0 20 19" fill="none" xmlns="http://www.w3.org/2000/svg">
<path d="M1.34126e-06 6.09557C-0.000525832 5.30778 0.154353 4.52761 0.455768 3.79976C0.757183 3.0719 1.19921 2.41065 1.75655 1.85387C2.31388 1.2971 2.97558 0.855727 3.70373 0.55504C4.43189 0.254353 5.21221 0.100255 6 0.101571H14C17.313 0.101571 20 2.79657 20 6.09557V18.1016H6C2.687 18.1016 1.34126e-06 15.4066 1.34126e-06 12.1076V6.09557ZM18 16.1016V6.09557C17.9974 5.03607 17.5749 4.02081 16.8251 3.27219C16.0754 2.52357 15.0595 2.10263 14 2.10157H6C5.47485 2.10025 4.9546 2.20262 4.4691 2.4028C3.98359 2.60297 3.54238 2.89702 3.17076 3.26809C2.79914 3.63915 2.50443 4.07992 2.30353 4.56512C2.10262 5.05033 1.99947 5.57042 2 6.09557V12.1076C2.00265 13.1671 2.42511 14.1823 3.17486 14.931C3.9246 15.6796 4.9405 16.1005 6 16.1016H18ZM12 8.10157H14V10.1016H12V8.10157ZM6 8.10157H8V10.1016H6V8.10157Z" fill="white"/>
</svg>
