<svg width="38" height="38" viewBox="0 0 38 38" fill="none" xmlns="http://www.w3.org/2000/svg">
<path d="M4 4V10H32V4H4ZM2 0H34C34.5304 0 35.0391 0.21071 35.4142 0.58579C35.7893 0.96086 36 1.46957 36 2V12C36 12.5304 35.7893 13.0391 35.4142 13.4142C35.0391 13.7893 34.5304 14 34 14H2C1.46957 14 0.96086 13.7893 0.58579 13.4142C0.21071 13.0391 0 12.5304 0 12V2C0 1.46957 0.21071 0.96086 0.58579 0.58579C0.96086 0.21071 1.46957 0 2 0ZM6 18H18C18.5304 18 19.0391 18.2107 19.4142 18.5858C19.7893 18.9609 20 19.4696 20 20V26H22V38H14V26H16V22H4C3.46957 22 2.96086 21.7893 2.58579 21.4142C2.21071 21.0391 2 20.5304 2 20V16H6V18ZM29.464 21.464L33 17.928L36.536 21.464C37.2351 22.1633 37.7112 23.0542 37.904 24.0241C38.0968 24.994 37.9977 25.9992 37.6193 26.9128C37.2408 27.8263 36.5999 28.6072 35.7777 29.1565C34.9555 29.7059 33.9889 29.9991 33 29.9991C32.0111 29.9991 31.0445 29.7059 30.2223 29.1565C29.4001 28.6072 28.7592 27.8263 28.3807 26.9128C28.0023 25.9992 27.9032 24.994 28.096 24.0241C28.2888 23.0542 28.7649 22.1633 29.464 21.464Z" fill="white"/>
</svg>
