<svg width="40" height="38" viewBox="0 0 40 38" fill="none" xmlns="http://www.w3.org/2000/svg">
<path d="M4.00005 26H36V4H4.00005V26ZM22.0001 30V34H30.0001V38H10.0001V34H18.0001V30H1.98405C1.72142 29.9984 1.46169 29.945 1.21973 29.8429C0.977768 29.7408 0.758345 29.5919 0.574034 29.4048C0.389723 29.2177 0.244148 28.9961 0.145652 28.7526C0.0471569 28.5091 -0.00232214 28.2486 5.09743e-05 27.986V2.014C5.09743e-05 0.902 0.910051 0 1.98405 0H38.016C39.112 0 40 0.898 40 2.014V27.986C40 29.098 39.09 30 38.016 30H22.0001Z" fill="white"/>
</svg>
