<svg width="48" height="38" viewBox="0 0 48 38" fill="none" xmlns="http://www.w3.org/2000/svg">
<path d="M9.74601 1.93429e-08H38.254C38.5696 -4.38667e-05 38.8807 0.0745909 39.1619 0.217803C39.4431 0.361016 39.6865 0.568741 39.872 0.824L47.518 11.336C47.6539 11.523 47.7208 11.7514 47.7074 11.9822C47.6939 12.2131 47.6008 12.4321 47.444 12.602L24.734 37.204C24.5541 37.3985 24.3043 37.5136 24.0396 37.5241C23.7749 37.5346 23.5168 37.4396 23.322 37.26C23.308 37.248 15.722 29.03 0.556006 12.602C0.399213 12.4321 0.306151 12.2131 0.292659 11.9822C0.279167 11.7514 0.346079 11.523 0.482006 11.336L8.12801 0.824C8.31357 0.568741 8.5569 0.361016 8.83811 0.217803C9.11932 0.0745909 9.43043 -4.38667e-05 9.74601 1.93429e-08ZM10.766 4L5.16601 11.7L24 32.1L42.834 11.7L37.234 4H10.766Z" fill="white"/>
</svg>
